<svg xmlns="http://www.w3.org/2000/svg" viewBox="0 0 400 400">
	<path fill="#8cd404" d="M12.5 18.75V25H75v150h75V25h237.5V12.5h-375v6.25m0 87.5V175H50V37.5H12.5v68.75m150 0V175h25V37.5h-25v68.75m150-62.5V50H325v12.5h-12.5V75H325v12.5h-12.5V100H325v12.5h-12.5V125H325v12.5h-12.5V150H325v12.5h-12.5V175H325v-12.5h12.5V175H350v-12.5h12.5V175h25V37.5h-25V50H350V37.5h-12.5V50H325V37.5h-12.5v6.25m37.5 12.5v6.25h12.5V75H350v12.5h12.5V100H350v12.5h12.5V125H350v12.5h12.5V150H350v12.5h-12.5V150H325v-12.5h12.5V125H325v-12.5h12.5V100H325V87.5h12.5V75H325V62.5h12.5V50H350v6.25m-12.5 12.5V75H350V62.5h-12.5v6.25m0 25V100H350V87.5h-12.5v6.25m0 25V125H350v-12.5h-12.5v6.25m0 25V150H350v-12.5h-12.5v6.25M37.5 300v100H75V200H37.5v100m62.5 0v100h62.5V200H100v100m75 0v100h25V200h-25v100m125-93.75v6.25h12.5V225H300v12.5h12.5V250H300v12.5h12.5V275H300v12.5h12.5V300H300v12.5h12.5V325H300v12.5h12.5V350H300v12.5h12.5V375H300v12.5h12.5V400H325v-12.5h12.5V400h25V200H325v12.5h-12.5V200H300v6.25m37.5 12.5V225H325v12.5h12.5V250H325v12.5h12.5V275H325v12.5h12.5V300H325v12.5h12.5V325H325v12.5h12.5V350H325v12.5h12.5V375H325v12.5h-12.5V375H325v-12.5h-12.5V350H325v-12.5h-12.5V325H325v-12.5h-12.5V300H325v-12.5h-12.5V275H325v-12.5h-12.5V250H325v-12.5h-12.5V225H325v-12.5h12.5v6.25"/>
	<path fill="#149404" d="M12.5 31.25v6.25H50V175h25V25H12.5v6.25M150 100v75h12.5V37.5h25V175h125v-12.5H325V175h12.5v-12.5H350V175h12.5v-12.5H350V150h12.5v-12.5H350V125h12.5v-12.5H350V100h12.5V87.5H350V75h12.5V62.5H350V50h12.5V37.5h25V25H150v75m175-56.25V50h12.5V37.5H350V50h-12.5v12.5H350V75h-12.5v12.5H350V100h-12.5v12.5H350V125h-12.5v12.5H350V150h-12.5v12.5H325V150h-12.5v-12.5H325V125h-12.5v-12.5H325V100h-12.5V87.5H325V75h-12.5V62.5H325V50h-12.5V37.5H325v6.25m0 25V75h12.5V62.5H325v6.25m0 25V100h12.5V87.5H325v6.25m0 25V125h12.5v-12.5H325v6.25m0 25V150h12.5v-12.5H325v6.25M75 300v100h25V200H75v100m87.5 0v100H175V200h-12.5v100m37.5 0v100h112.5v-12.5H325V400h12.5v-12.5H325V375h12.5v-12.5H325V350h12.5v-12.5H325V325h12.5v-12.5H325V300h12.5v-12.5H325V275h12.5v-12.5H325V250h12.5v-12.5H325V225h12.5v-12.5H325V200h-12.5v12.5H300V200H200v100m125-81.25V225h-12.5v12.5H325V250h-12.5v12.5H325V275h-12.5v12.5H325V300h-12.5v12.5H325V325h-12.5v12.5H325V350h-12.5v12.5H325V375h-12.5v12.5H300V375h12.5v-12.5H300V350h12.5v-12.5H300V325h12.5v-12.5H300V300h12.5v-12.5H300V275h12.5v-12.5H300V250h12.5v-12.5H300V225h12.5v-12.5H325v6.25"/>
	<path fill="#000000" d="M0 93.75v93.75h25V400h12.5V200h325v200H375V187.5h25V0H0v93.75m387.5 0V175h-375V12.5h375v81.25"/>
</svg>