<svg xmlns="http://www.w3.org/2000/svg" viewBox="0 0 1008 1008">
	<g fill="#E69C21">
		<path d="M63 0h882v21h21v21h21v42h21v231h-21v21H672v672H336V336H63v-21H21v-21H0V84h21V42h21V21h21V0z"/>
		<path d="M966 84h21v21h-21V84z"/>
	</g>
	<g fill="#FFCEC5">
		<path d="M357 336h294v126h-21v21h21v525H357V483h21v-21h-21V336z"/>
		<path d="M357 336h294v126h-21v42h-42v-21h-21v-21h-21v21h-21v21h-42v-21h-21v-21h-21v21h-21v21h-42v-42h-21V336z"/>
	</g>
	<g fill="#B53121">
		<path d="M63 0h882v21H189v84h-21v42h-21v21h-21v21H21v105H0V84h21V42h21V21h21V0z"/>
		<path d="M504 105h105v21h21v42h21v84h-21v42h-21v21H504v-21h-21v-42h-21v-84h21v-42h21v-21zM672 21h168v84h-21v21h-21v21h-84v-21h-21v-21h-21V21zM231 126h63v21h21v21h21v63h-21v21h-21v21h-63v-21h-21v-21h-21v-63h21v-21h21v-21zM966 42h21v168h-21v21h-63v-21h-21v-21h-21v-63h21v-21h21V84h63V42zM357 21h168v42h-21v21H378V63h-21V21z"/>
	</g>
	<path d="M987 84h21v231h-21v21H672v672h-21V483h-21v-21h21V336H357v126h21v21h-21v525h-21V336H63v-21h903v-21h21V84zM63 0h882v21H63V0zM0 84h21v210H0V84zM21 294h42v21H21v-21zM966 42h21v42h-21V42zM21 42h21v42H21V42zM945 21h21v21h-21V21zM42 21h21v21H42V21z"/>
	<path fill="#9C4A00" d="M588 483h42v21h-42v-21zM483 483h42v21h-42v-21zM378 483h42v21h-42v-21zM630 462h21v21h-21v-21zM567 462h21v21h-21v-21zM525 462h21v21h-21v-21zM462 462h21v21h-21v-21zM420 462h21v21h-21v-21zM357 462h21v21h-21v-21zM546 441h21v21h-21v-21zM441 441h21v21h-21v-21z"/>
</svg>