<?xml version="1.0" standalone="yes"?>
<svg xmlns="http://www.w3.org/2000/svg" width="330" height="240">
	<g transform="translate(0,240) scale(0.1,-0.1)" fill="#000000" stroke="none">
		<path d="M1500 2350 l0 -50 -50 0 -50 0 0 -50 0 -50 -100 0 -100 0 0 -50 0 -50 -50 0 -50 0 0 -150 0 -150 -50 0 -50 0 0 -50 0 -50 -50 0 -50 0 0 -50 0 -50 -150 0 -150 0 0 -50 0 -50 -50 0 -50 0 0 -50 0 -50 -50 0 -50 0 0 -50 0 -50 50 0 50 0 0 50 0 50 50 0 50 0 0 50 0 50 150 0 150 0 0 50 0 50 50 0 50 0 0 50 0 50 50 0 50 0 0 50 0 50 50 0 50 0 0 150 0 150 100 0 100 0 0 50 0 50 50 0 50 0 0 50 0 50 200 0 200 0 0 -50 0 -50 50 0 50 0 0 -100 0 -100 50 0 50 0 0 -50 0 -50 50 0 50 0 0 50 0 50 50 0 50 0 0 -50 0 -50 50 0 50 0 0 -150 0 -150 50 0 50 0 0 -100 0 -100 50 0 50 0 0 -50 0 -50 50 0 50 0 0 50 0 50 50 0 50 0 0 50 0 50 50 0 50 0 0 -150 0 -150 50 0 50 0 0 -50 0 -50 50 0 50 0 0 50 0 50 50 0 50 0 0 -150 0 -150 -50 0 -50 0 0 -50 0 -50 -50 0 -50 0 0 -50 0 -50 50 0 50 0 0 -50 0 -50 50 0 50 0 0 -50 0 -50 50 0 50 0 0 50 0 50 -50 0 -50 0 0 50 0 50 -50 0 -50 0 0 50 0 50 50 0 50 0 0 50 0 50 50 0 50 0 0 150 0 150 -50 0 -50 0 0 50 0 50 -50 0 -50 0 0 -50 0 -50 -50 0 -50 0 0 150 0 150 -50 0 -50 0 0 50 0 50 -50 0 -50 0 0 -50 0 -50 -50 0 -50 0 0 -50 0 -50 -50 0 -50 0 0 100 0 100 -50 0 -50 0 0 150 0 150 -50 0 -50 0 0 50 0 50 -50 0 -50 0 0 50 0 50 -50 0 -50 0 0 -50 0 -50 -50 0 -50 0 0 100 0 100 -50 0 -50 0 0 50 0 50 -50 0 -50 0 0 50 0 50 -200 0 -200 0 0 -50z"/>
		<path d="M100 1150 l0 -50 -50 0 -50 0 0 -100 0 -100 50 0 50 0 0 -50 0 -50 50 0 50 0 0 -50 0 -50 50 0 50 0 0 -50 0 -50 50 0 50 0 0 -100 0 -100 50 0 50 0 0 -50 0 -50 200 0 200 0 0 -50 0 -50 50 0 50 0 0 -50 0 -50 100 0 100 0 0 -50 0 -50 150 0 150 0 0 50 0 50 50 0 50 0 0 50 0 50 50 0 50 0 0 -50 0 -50 100 0 100 0 0 -50 0 -50 200 0 200 0 0 50 0 50 100 0 100 0 0 50 0 50 50 0 50 0 0 -50 0 -50 100 0 100 0 0 50 0 50 100 0 100 0 0 50 0 50 100 0 100 0 0 50 0 50 -100 0 -100 0 0 -50 0 -50 -100 0 -100 0 0 -50 0 -50 -100 0 -100 0 0 50 0 50 -50 0 -50 0 0 -50 0 -50 -100 0 -100 0 0 -50 0 -50 -200 0 -200 0 0 50 0 50 -100 0 -100 0 0 50 0 50 -50 0 -50 0 0 -50 0 -50 -50 0 -50 0 0 -50 0 -50 -150 0 -150 0 0 50 0 50 -100 0 -100 0 0 50 0 50 -50 0 -50 0 0 50 0 50 -200 0 -200 0 0 100 0 100 -50 0 -50 0 0 50 0 50 -50 0 -50 0 0 50 0 50 -50 0 -50 0 0 50 0 50 -50 0 -50 0 0 100 0 100 100 0 100 0 0 50 0 50 -100 0 -100 0 0 -50z"/>
	</g>
	<path style="fill:#ffffff; stroke:none;" d="M150 10L150 20L140 20L140 30L120 30L120 60L110 60L110 70L100 70L100 80L90 80L90 90L60 90L60 100L50 100L50 110L40 110L40 120L30 120L30 130L10 130L10 150L20 150L20 160L30 160L30 170L40 170L40 180L50 180L50 200L90 200L90 210L100 210L100 220L120 220L120 230L150 230L150 220L160 220L160 210L170 210L170 220L190 220L190 230L230 230L230 220L250 220L250 210L260 210L260 220L280 220L280 210L300 210L300 200L320 200L320 180L310 180L310 170L300 170L300 160L310 160L310 150L320 150L320 120L310 120L310 130L300 130L300 120L290 120L290 90L280 90L280 100L270 100L270 110L260 110L260 100L250 100L250 80L240 80L240 50L230 50L230 40L220 40L220 50L210 50L210 40L200 40L200 20L190 20L190 10L150 10z"/>
	<path style="fill:#a4d2ff; stroke:none;" d="M190 50L190 60L200 60L200 70L210 70L210 60L200 60L200 50L190 50M140 60L140 70L130 70L130 80L140 80L140 70L160 70L160 60L140 60M50 160L50 170L60 170L60 180L70 180L70 190L110 190L110 200L130 200L130 210L150 210L150 200L180 200L180 190L190 190L190 200L200 200L200 210L230 210L230 200L240 200L240 190L250 190L250 180L240 180L240 190L200 190L200 180L190 180L190 170L200 170L200 160L190 160L190 170L180 170L180 180L150 180L150 190L120 190L120 180L110 180L110 170L100 170L100 180L70 180L70 170L60 170L60 160L50 160z"/>
</svg>