<?xml version="1.0" encoding="UTF-8" standalone="yes"?>
<svg xmlns:svg="http://www.w3.org/2000/svg"
	xmlns="http://www.w3.org/2000/svg" viewBox="0 0 16 16" xml:space="preserve" version="1.1">

	<g fill="#e69c21" id="star">
		<rect width="2" height="2" transform="translate(7, 0)"/>
		<rect width="4" height="2" transform="translate(6, 2)"/>
		<rect width="6" height="1" transform="translate(5, 4)"/>
		<rect width="14" height="2" transform="translate(1, 5)" />
		<rect width="12" height="1" transform="translate(2, 7)" />
		<rect width="10" height="1" transform="translate(3, 8)" />
		<rect width="8" height="2" transform="translate(4, 9)"/>
		<rect width="10" height="2" transform="translate(3, 11)" />
		<rect width="4" height="1" transform="translate(3, 13)"/>
		<rect width="4" height="1" transform="translate(9, 13)"/>
		<rect width="3" height="1" transform="translate(2, 14)"/>
		<rect width="3" height="1" transform="translate(11, 14)"/>
		<rect width="2" height="1" transform="translate(2, 15)"/>
		<rect width="2" height="1" transform="translate(12, 15)"/>
	</g>

	<g fill="#b53121" id="eyes">
		<rect width="1" height="3" transform="translate(6, 6)" />
		<rect width="1" height="3" transform="translate(9, 6)" />
	</g>

</svg>