<?xml version="1.0" encoding="UTF-8"?>
<svg version="1.1"
	xmlns="http://www.w3.org/2000/svg" width="1190" height="1600">
	<path fill="#FF3118" transform="translate(298,0)" d="M0 0 C163.35 0 326.7 0 495 0 C495 33 495 66 495 100 C593.34 100 691.68 100 793 100 C793 133 793 166 793 200 C727.66 200 662.32 200 595 200 C595 233 595 266 595 300 C660.34 300 725.68 300 793 300 C793 333 793 366 793 400 C825.67 400 858.34 400 892 400 C892 433 892 466 892 500 C859.33 500 826.66 500 793 500 C793 533 793 566 793 600 C760.33 600 727.66 600 694 600 C694 633 694 666 694 700 C628.33 700 562.66 700 495 700 C495 733 495 766 495 800 C593.34 800 691.68 800 793 800 C793 833 793 866 793 900 C825.67 900 858.34 900 892 900 C892 1032 892 1164 892 1300 C826.66 1300 761.32 1300 694 1300 C694 1333 694 1366 694 1400 C726.67 1400 759.34 1400 793 1400 C793 1433 793 1466 793 1500 C825.67 1500 858.34 1500 892 1500 C892 1533 892 1566 892 1600 C760.99 1600 629.98 1600 495 1600 C495 1534 495 1468 495 1400 C462.33 1400 429.66 1400 396 1400 C396 1367 396 1334 396 1300 C330.66 1300 265.32 1300 198 1300 C198 1333 198 1366 198 1400 C165.33 1400 132.66 1400 99 1400 C99 1466 99 1532 99 1600 C-32.01 1600 -163.02 1600 -298 1600 C-298 1567 -298 1534 -298 1500 C-265.33 1500 -232.66 1500 -199 1500 C-199 1467 -199 1434 -199 1400 C-166.33 1400 -133.66 1400 -100 1400 C-100 1367 -100 1334 -100 1300 C-165.34 1300 -230.68 1300 -298 1300 C-298 1168 -298 1036 -298 900 C-265.33 900 -232.66 900 -199 900 C-199 867 -199 834 -199 800 C-166.33 800 -133.66 800 -100 800 C-100 767 -100 734 -100 700 C-67 700 -34 700 0 700 C0 667 0 634 0 600 C-65.67 600 -131.34 600 -199 600 C-199 501 -199 402 -199 300 C-166.33 300 -133.66 300 -100 300 C-100 234 -100 168 -100 100 C-67 100 -34 100 0 100 C0 67 0 34 0 0 Z "/>
	<path fill="#FF945A" transform="translate(298,0)" d="M0 0 C163.35 0 326.7 0 495 0 C495 33 495 66 495 100 C593.34 100 691.68 100 793 100 C793 133 793 166 793 200 C727.66 200 662.32 200 595 200 C595 233 595 266 595 300 C660.34 300 725.68 300 793 300 C793 333 793 366 793 400 C825.67 400 858.34 400 892 400 C892 433 892 466 892 500 C859.33 500 826.66 500 793 500 C793 533 793 566 793 600 C760.33 600 727.66 600 694 600 C694 633 694 666 694 700 C464.98 700 235.96 700 0 700 C0 667 0 634 0 600 C-65.67 600 -131.34 600 -199 600 C-199 501 -199 402 -199 300 C-166.33 300 -133.66 300 -100 300 C-100 234 -100 168 -100 100 C-67 100 -34 100 0 100 C0 67 0 34 0 0 Z "/>
	<path fill="#FF3118" transform="translate(298,0)" d="M0 0 C163.35 0 326.7 0 495 0 C495 33 495 66 495 100 C593.34 100 691.68 100 793 100 C793 133 793 166 793 200 C694.66 200 596.32 200 495 200 C495 266 495 332 495 400 C462.33 400 429.66 400 396 400 C396 334 396 268 396 200 C330.66 200 265.32 200 198 200 C198 233 198 266 198 300 C165.33 300 132.66 300 99 300 C99 333 99 366 99 400 C131.67 400 164.34 400 198 400 C198 433 198 466 198 500 C132.66 500 67.32 500 0 500 C0 533 0 566 0 600 C-65.67 600 -131.34 600 -199 600 C-199 501 -199 402 -199 300 C-166.33 300 -133.66 300 -100 300 C-100 234 -100 168 -100 100 C-67 100 -34 100 0 100 C0 67 0 34 0 0 Z "/>
	<path fill="#C66300" transform="translate(198,200)" d="M0 0 C98.34 0 196.68 0 298 0 C298 33 298 66 298 100 C265.33 100 232.66 100 199 100 C199 133 199 166 199 200 C231.67 200 264.34 200 298 200 C298 233 298 266 298 300 C232.66 300 167.32 300 100 300 C100 333 100 366 100 400 C34.33 400 -31.34 400 -99 400 C-99 301 -99 202 -99 100 C-66.33 100 -33.66 100 0 100 C0 67 0 34 0 0 Z "/>
	<path fill="#C66300" transform="translate(198,700)" d="M0 0 C65.67 0 131.34 0 199 0 C199 99 199 198 199 300 C166.33 300 133.66 300 100 300 C100 333 100 366 100 400 C67 400 34 400 0 400 C0 367 0 334 0 300 C-65.34 300 -130.68 300 -198 300 C-198 267 -198 234 -198 200 C-165.33 200 -132.66 200 -99 200 C-99 167 -99 134 -99 100 C-66.33 100 -33.66 100 0 100 C0 67 0 34 0 0 Z "/>
	<path fill="#C66300" transform="translate(793,800)" d="M0 0 C98.34 0 196.68 0 298 0 C298 33 298 66 298 100 C330.67 100 363.34 100 397 100 C397 133 397 166 397 200 C331.66 200 266.32 200 199 200 C199 233 199 266 199 300 C166.33 300 133.66 300 100 300 C100 267 100 234 100 200 C67 200 34 200 0 200 C0 134 0 68 0 0 Z "/>
	<path fill="#C66300" transform="translate(793,1400)" d="M0 0 C98.34 0 196.68 0 298 0 C298 33 298 66 298 100 C330.67 100 363.34 100 397 100 C397 133 397 166 397 200 C265.99 200 134.98 200 0 200 C0 134 0 68 0 0 Z "/>
	<path fill="#C66300" transform="translate(99,1400)" d="M0 0 C98.34 0 196.68 0 298 0 C298 66 298 132 298 200 C166.99 200 35.98 200 -99 200 C-99 167 -99 134 -99 100 C-66.33 100 -33.66 100 0 100 C0 67 0 34 0 0 Z "/>
	<path fill="#FF945A" transform="translate(793,200)" d="M0 0 C33 0 66 0 100 0 C100 33 100 66 100 100 C165.34 100 230.68 100 298 100 C298 133 298 166 298 200 C330.67 200 363.34 200 397 200 C397 233 397 266 397 300 C298.99 300 200.98 300 100 300 C100 267 100 234 100 200 C67 200 34 200 0 200 C0 134 0 68 0 0 Z "/>
	<path fill="#FF945A" transform="translate(0,1000)" d="M0 0 C65.34 0 130.68 0 198 0 C198 33 198 66 198 100 C231 100 264 100 298 100 C298 133 298 166 298 200 C265 200 232 200 198 200 C198 233 198 266 198 300 C132.66 300 67.32 300 0 300 C0 201 0 102 0 0 Z "/>
	<path fill="#FF945A" transform="translate(992,1000)" d="M0 0 C65.34 0 130.68 0 198 0 C198 99 198 198 198 300 C132.66 300 67.32 300 0 300 C0 267 0 234 0 200 C-32.67 200 -65.34 200 -99 200 C-99 167 -99 134 -99 100 C-66.33 100 -33.66 100 0 100 C0 67 0 34 0 0 Z "/>
	<path fill="#C66300" transform="translate(793,400)" d="M0 0 C33 0 66 0 100 0 C100 33 100 66 100 100 C165.34 100 230.68 100 298 100 C298 133 298 166 298 200 C166.99 200 35.98 200 -99 200 C-99 167 -99 134 -99 100 C-66.33 100 -33.66 100 0 100 C0 67 0 34 0 0 Z "/>
	<path fill="#C66300" transform="translate(496,700)" d="M0 0 C98.01 0 196.02 0 297 0 C297 33 297 66 297 100 C264.33 100 231.66 100 198 100 C198 133 198 166 198 200 C132.66 200 67.32 200 0 200 C0 134 0 68 0 0 Z "/>
	<path fill="#C66300" transform="translate(99,300)" d="M0 0 C32.67 0 65.34 0 99 0 C99 66 99 132 99 200 C132 200 165 200 199 200 C199 233 199 266 199 300 C133.33 300 67.66 300 0 300 C0 201 0 102 0 0 Z "/>
	<path fill="#FF945A" transform="translate(198,300)" d="M0 0 C33 0 66 0 100 0 C100 66 100 132 100 200 C67 200 34 200 0 200 C0 134 0 68 0 0 Z "/>
	<path fill="#C66300" transform="translate(694,200)" d="M0 0 C32.67 0 65.34 0 99 0 C99 66 99 132 99 200 C66.33 200 33.66 200 0 200 C0 134 0 68 0 0 Z "/>
	<path fill="#FF945A" transform="translate(694,1000)" d="M0 0 C32.67 0 65.34 0 99 0 C99 33 99 66 99 100 C66.33 100 33.66 100 0 100 C0 67 0 34 0 0 Z "/>
	<path fill="#FF945A" transform="translate(397,1000)" d="M0 0 C32.67 0 65.34 0 99 0 C99 33 99 66 99 100 C66.33 100 33.66 100 0 100 C0 67 0 34 0 0 Z "/>
</svg>
