<?xml version="1.0" standalone="yes"?>
<svg xmlns="http://www.w3.org/2000/svg" width="531" height="240">
	<g transform="translate(0,240) scale(0.1,-0.1)" fill="#000000" stroke="none">
		<path d="M1510 2350 l0 -50 -50 0 -50 0 0 -50 0 -50 -100 0 -100 0 0 -50 0 -50 -50 0 -50 0 0 -150 0 -150 -50 0 -50 0 0 -50 0 -50 -50 0 -50 0 0 -50 0 -50 -150 0 -150 0 0 -50 0 -50 -50 0 -50 0 0 -50 0 -50 -50 0 -50 0 0 -50 0 -50 50 0 50 0 0 50 0 50 50 0 50 0 0 50 0 50 150 0 150 0 0 50 0 50 50 0 50 0 0 50 0 50 50 0 50 0 0 50 0 50 50 0 50 0 0 150 0 150 100 0 100 0 0 50 0 50 50 0 50 0 0 50 0 50 200 0 200 0 0 -50 0 -50 50 0 50 0 0 -100 0 -100 50 0 50 0 0 -50 0 -50 50 0 50 0 0 50 0 50 50 0 50 0 0 -50 0 -50 50 0 50 0 0 -150 0 -150 100 0 100 0 0 50 0 50 50 0 50 0 0 50 0 50 50 0 50 0 0 150 0 150 100 0 100 0 0 50 0 50 50 0 50 0 0 50 0 50 200 0 200 0 0 -50 0 -50 50 0 50 0 0 -100 0 -100 50 0 50 0 0 -50 0 -50 50 0 50 0 0 50 0 50 50 0 50 0 0 -50 0 -50 50 0 50 0 0 -150 0 -150 50 0 50 0 0 -100 0 -100 50 0 50 0 0 -50 0 -50 50 0 50 0 0 50 0 50 50 0 50 0 0 50 0 50 50 0 50 0 0 -150 0 -150 50 0 50 0 0 -50 0 -50 50 0 50 0 0 50 0 50 50 0 50 0 0 -150 0 -150 -50 0 -50 0 0 -50 0 -50 -50 0 -50 0 0 -50 0 -50 50 0 50 0 0 -50 0 -50 50 0 50 0 0 -50 0 -50 50 0 50 0 0 50 0 50 -50 0 -50 0 0 50 0 50 -50 0 -50 0 0 50 0 50 50 0 50 0 0 50 0 50 50 0 50 0 0 150 0 150 -50 0 -50 0 0 50 0 50 -50 0 -50 0 0 -50 0 -50 -50 0 -50 0 0 150 0 150 -50 0 -50 0 0 50 0 50 -50 0 -50 0 0 -50 0 -50 -50 0 -50 0 0 -50 0 -50 -50 0 -50 0 0 100 0 100 -50 0 -50 0 0 150 0 150 -50 0 -50 0 0 50 0 50 -50 0 -50 0 0 50 0 50 -50 0 -50 0 0 -50 0 -50 -50 0 -50 0 0 100 0 100 -50 0 -50 0 0 50 0 50 -50 0 -50 0 0 50 0 50 -200 0 -200 0 0 -50 0 -50 -50 0 -50 0 0 -50 0 -50 -100 0 -100 0 0 -50 0 -50 -50 0 -50 0 0 -150 0 -150 -50 0 -50 0 0 -50 0 -50 -50 0 -50 0 0 100 0 100 -50 0 -50 0 0 50 0 50 -50 0 -50 0 0 50 0 50 -50 0 -50 0 0 -50 0 -50 -50 0 -50 0 0 100 0 100 -50 0 -50 0 0 50 0 50 -50 0 -50 0 0 50 0 50 -200 0 -200 0 0 -50z"/>
		<path d="M110 1150 l0 -50 -50 0 -50 0 0 -100 0 -100 50 0 50 0 0 -50 0 -50 50 0 50 0 0 -50 0 -50 50 0 50 0 0 -50 0 -50 50 0 50 0 0 -100 0 -100 50 0 50 0 0 -50 0 -50 200 0 200 0 0 -50 0 -50 50 0 50 0 0 -50 0 -50 100 0 100 0 0 -50 0 -50 150 0 150 0 0 50 0 50 50 0 50 0 0 50 0 50 50 0 50 0 0 -50 0 -50 100 0 100 0 0 -50 0 -50 200 0 200 0 0 50 0 50 100 0 100 0 0 50 0 50 50 0 50 0 0 -50 0 -50 100 0 100 0 0 -50 0 -50 150 0 150 0 0 50 0 50 50 0 50 0 0 50 0 50 50 0 50 0 0 -50 0 -50 100 0 100 0 0 -50 0 -50 200 0 200 0 0 50 0 50 100 0 100 0 0 50 0 50 50 0 50 0 0 -50 0 -50 100 0 100 0 0 50 0 50 100 0 100 0 0 50 0 50 100 0 100 0 0 50 0 50 -100 0 -100 0 0 -50 0 -50 -100 0 -100 0 0 -50 0 -50 -100 0 -100 0 0 50 0 50 -50 0 -50 0 0 -50 0 -50 -100 0 -100 0 0 -50 0 -50 -200 0 -200 0 0 50 0 50 -100 0 -100 0 0 50 0 50 -50 0 -50 0 0 -50 0 -50 -50 0 -50 0 0 -50 0 -50 -150 0 -150 0 0 50 0 50 -100 0 -100 0 0 50 0 50 -50 0 -50 0 0 -50 0 -50 -100 0 -100 0 0 -50 0 -50 -200 0 -200 0 0 50 0 50 -100 0 -100 0 0 50 0 50 -50 0 -50 0 0 -50 0 -50 -50 0 -50 0 0 -50 0 -50 -150 0 -150 0 0 50 0 50 -100 0 -100 0 0 50 0 50 -50 0 -50 0 0 50 0 50 -200 0 -200 0 0 100 0 100 -50 0 -50 0 0 50 0 50 -50 0 -50 0 0 50 0 50 -50 0 -50 0 0 50 0 50 -50 0 -50 0 0 100 0 100 100 0 100 0 0 50 0 50 -100 0 -100 0 0 -50z"/>
	</g>
	<path style="fill:#ffffff; stroke:none;" d="M151 10L151 20L141 20L141 30L121 30L121 60L111 60L111 70L101 70L101 80L91 80L91 90L61 90L61 100L51 100L51 110L41 110L41 120L31 120L31 130L11 130L11 150L21 150L21 160L31 160L31 170L41 170L41 180L51 180L51 200L91 200L91 210L101 210L101 220L121 220L121 230L151 230L151 220L161 220L161 210L171 210L171 220L191 220L191 230L231 230L231 220L251 220L251 210L261 210L261 220L281 220L281 230L311 230L311 220L321 220L321 210L331 210L331 220L351 220L351 230L391 230L391 220L411 220L411 210L421 210L421 220L441 220L441 210L461 210L461 200L481 200L481 180L471 180L471 170L461 170L461 160L471 160L471 150L481 150L481 120L471 120L471 130L461 130L461 120L451 120L451 90L441 90L441 100L431 100L431 110L421 110L421 100L411 100L411 80L401 80L401 50L391 50L391 40L381 40L381 50L371 50L371 40L361 40L361 20L351 20L351 10L311 10L311 20L301 20L301 30L281 30L281 60L271 60L271 70L261 70L261 80L241 80L241 50L231 50L231 40L221 40L221 50L211 50L211 40L201 40L201 20L191 20L191 10L151 10z"/>
	<path style="fill:#a4d2ff; stroke:none;" d="M181 50L181 60L191 60L191 70L201 70L201 60L191 60L191 50L181 50M351 50L351 60L361 60L361 70L371 70L371 60L361 60L361 50L351 50M141 60L141 70L131 70L131 80L141 80L141 70L161 70L161 60L141 60M301 60L301 70L291 70L291 80L301 80L301 70L321 70L321 60L301 60M51 160L51 170L61 170L61 180L71 180L71 190L101 190L101 200L121 200L121 210L141 210L141 200L171 200L171 190L181 190L181 200L191 200L191 210L221 210L221 200L231 200L231 190L241 190L241 180L231 180L231 190L191 190L191 180L181 180L181 170L191 170L191 160L181 160L181 170L171 170L171 180L141 180L141 190L111 190L111 180L101 180L101 170L91 170L91 180L71 180L71 170L61 170L61 160L51 160M351 160L351 170L341 170L341 180L311 180L311 190L281 190L281 180L271 180L271 170L261 170L261 180L251 180L251 190L271 190L271 200L291 200L291 210L311 210L311 200L341 200L341 190L351 190L351 200L361 200L361 210L391 210L391 200L401 200L401 190L411 190L411 180L401 180L401 190L361 190L361 180L351 180L351 170L361 170L361 160L351 160z"/>
</svg>
