<svg xmlns="http://www.w3.org/2000/svg" viewBox="0 0 1008 1008">
	<path fill="#8CD600" d="M42 0h903v21h21v21h21v42h21v210h-21v21h-21v21h-84v-21h-21v-21h-42v21h-21v21H693v-21h-21v693H336V294h-21v21h-21v21H189v-21h-21v-21h-21v21h-21v21H42v-21H21v-21H0V63h21V21h21V0z"/>
	<path fill="#9C4A00" d="M483 273h21v21h21v21h105v-21h21v-21h21v21h21v21h-21v693H336V294h21v21h105v-21h21v-21z"/>
	<g fill="#109400">
		<path d="M483 273h21v21h21v21h105v-21h21v-21h21v21h21v21h-21v21H336v-42h21v21h105v-21h21v-21z"/>
		<path d="M483 273h21v21h21v42h-63v-42h21v-21z"/>
	</g>
	<path d="M336 294h21v21h105v21H336v-42z"/>
	<path fill="#109400" d="M336 294h21v42h-21v-42z"/>
	<path d="M987 84h21v210h-21V84zM42 0h903v21H63v21H42v42H21v210H0V63h21V21h21V0zM693 315h105v21H693v-21zM525 315h105v21H525v-21zM189 315h105v21H189v-21zM882 315h84v21h-84v-21zM42 315h84v21H42v-21zM567 924h21v63h-21v-63zM399 924h21v63h-21v-63zM588 861h21v63h-21v-63zM420 861h21v63h-21v-63zM567 756h21v63h-21v-63zM399 756h21v63h-21v-63zM588 693h21v63h-21v-63zM420 693h21v63h-21v-63zM567 588h21v63h-21v-63zM399 588h21v63h-21v-63zM588 525h21v63h-21v-63zM420 525h21v63h-21v-63zM567 420h21v63h-21v-63zM399 420h21v63h-21v-63zM588 357h21v63h-21v-63zM420 357h21v63h-21v-63zM819 273h42v21h-42v-21zM966 42h21v42h-21V42zM966 294h21v21h-21v-21zM861 294h21v21h-21v-21zM798 294h21v21h-21v-21zM672 294h21v21h-21v-21zM630 294h21v21h-21v-21zM504 294h21v21h-21v-21zM462 294h21v21h-21v-21zM336 294h21v21h-21v-21zM294 294h21v21h-21v-21zM168 294h21v21h-21v-21zM126 294h21v21h-21v-21zM21 294h21v21H21v-21zM651 273h21v21h-21v-21zM483 273h21v21h-21v-21zM315 273h21v21h-21v-21zM147 273h21v21h-21v-21zM945 21h21v21h-21V21z"/>
</svg>