<svg xmlns="http://www.w3.org/2000/svg" viewBox="0 0 1600 1600">
	<g fill="#FF3118">
		<path d="M1300 0h300v600h-100v100h-100v100h-100v300h200V900h100v500h-500v100H800v100H400v-100H200v100H100v-200h100v-100H100v-100H0v-200h100V900h100V800h400V700H400V400h100V200h100V100h500v100h200V0zm-100 300v100h100V300h-100zm-900 800v100h100v-100H300zm-100 100v100h100v-100H200z"/>
		<path d="M800 900h100v100h300V900h100v200h200V900h100v500h-500v100H800v100H400v-100H200v100H100v-200h100v-100h100v-100h100v-100h200v100h100v-100h100V900z"/>
	</g>
	<g fill="#C66300">
		<path d="M200 800h1100v100h-100v100H900V900H800v200H700v100H600v-100H300v100H200v100H100v-100H0v-200h100V900h100V800zM500 300h300v100H700v100h100v100H600v100H400V400h100V300z"/><path d="M300 1200h100v100h100v100H400v100H200v100H100v-200h100v-100h100v-100zM1500 900h100v500h-200v-300h100V900zM800 800h500v100h-100v100H900V900H800V800zM1100 500h100v100h300v100h-100v100h-100V700h-300V600h100V500zM1300 300h300v300h-100V500h-200V300zM400 400h100v200h100v100H400V400zM1000 300h100v200h-100V300z"/>
		<path d="M1200 800h100v100h-100V800z"/>
	</g>
	<g fill="#FF945A">
		<path d="M800 300h200v200h100v100h-100v100h300v100H600V600h200V500H700V400h100V300zM1300 0h300v300h-200V200h-100V0zM0 1000h200v100h100v100H200v100H100v-100H0v-200z"/>
		<path d="M1100 300h100v100h100v100h200v100h-300V500h-100V300zM500 400h100v200H500V400zM1200 1100h100v100h-100v-100zM900 1100h100v100H900v-100z"/>
	</g>
	<g fill="#FF3118">
		<path d="M1100 800h100v100h-100V800zM700 800h100v100H700V800z"/>
	</g>
</svg>