<svg xmlns="http://www.w3.org/2000/svg" viewBox="0 0 1920 960">
	<g fill="#8cd600">
		<path d="M840 0h240v60h60v60h60v120h60v-60h60v60h60v60h60v180h60v120h60v-60h60v-60h60v60h60v180h60v-60h60v60h60v180h-60v60H60v-60H0V780h60v-60h120V600h60v-60h60v-60h180v-60h60v-60h60V180h60v-60h120V60h60V0z"/>
		<path d="M780 120h30v30h-30v-30z"/>
	</g>
	<path fill="#109400" d="M780 360h120v60H780v-60zM720 420h60v60h-60v-60zM1080 360h60v60h-60v-60zM1020 300h60v60h-60v-60z"/>
	<path d="M840 0h240v60H840V0zm1020 720h60v180h-60V720zm-180-180h60v180h-60V540zM300 480h180v60H300v-60zm1080-180h60v180h-60V300zM600 180h60v180h-60V180zM0 780h60v120H0V780zm60-60h120v60H60v-60zm1380-240h60v120h-60V480zM1140 120h60v120h-60V120zm-480 0h120v60H660v-60zm1140 780h60v60h-60v-60zM60 900h60v60H60v-60zm1680-180h60v60h-60v-60zm60-60h60v60h-60v-60zm-300-60h60v60h-60v-60zm-1320 0h60v60h-60v-60zm1380-60h60v60h-60v-60zm-1320 0h60v60h-60v-60zm1380-60h60v60h-60v-60zM480 420h60v60h-60v-60zM540 360h60v60h-60v-60zM1320 240h60v60h-60v-60zm-120 0h60v60h-60v-60zm60-60h60v60h-60v-60zM1080 60h60v60h-60V60zm-300 0h60v60h-60V60z"/>
</svg>