<?xml version="1.0" standalone="yes"?>
<svg xmlns="http://www.w3.org/2000/svg" width="256" height="256">
	<path style="fill:#010101; stroke:none;" d="M32 0L32 15L15 15L15 32L0 32L0 224L15 224L15 240L32 240L32 256L224 256L224 240L240 240L240 224L256 224L256 32L240 32L240 15L224 15L224 0L32 0z"/>
	<path style="fill:#dd9933; stroke:none;" d="M32 15L32 32L15 32L15 224L32 224L32 240L224 240L224 224L240 224L240 32L224 32L224 15L32 15z"/>
	<path style="fill:#ffdd23; stroke:none;" d="M48 32L48 48L32 48L32 207L48 207L48 224L207 224L207 207L224 207L224 48L207 48L207 32L143 32L143 48L160 48L160 63L176 63L176 112L160 112L160 143L143 143L143 160L160 160L160 191L143 191L143 207L112 207L112 191L96 191L96 160L112 160L112 143L96 143L96 112L79 112L79 63L96 63L96 48L112 48L112 32L48 32z"/>
	<path style="fill:#010101; stroke:none;" d="M112 32L112 48L96 48L96 63L79 63L79 112L96 112L96 143L112 143L112 160L96 160L96 191L112 191L112 207L143 207L143 191L160 191L160 160L143 160L143 143L160 143L160 112L176 112L176 63L160 63L160 48L143 48L143 32L112 32z"/>
	<path style="fill:#efefff; stroke:none;" d="M112 48L112 63L96 63L96 112L112 112L112 143L143 143L143 112L160 112L160 63L143 63L143 48L112 48M112 160L112 191L143 191L143 160L112 160z"/>
</svg>
