<svg xmlns="http://www.w3.org/2000/svg" viewBox="0 0 1008 1008">
	<path fill="#8CD600" d="M42 0h903v21h21v21h21v42h21v210h-21v21h-21v21h-84v-21h-21v-21h-42v21h-21v21H693v-21h-21v693H336V294h-21v21h-21v21H189v-21h-21v-21h-21v21h-21v21H42v-21H21v-21H0V63h21V21h21V0z"/>
	<path fill="#9C4A00" d="M483 273h21v21h21v21h105v-21h21v-21h21v21h21v21h-21v693H336V294h21v21h105v-21h21v-21z"/>
	<path fill="#109400" d="M336 315h21v21h-21zM483 294h21v21h-21zM651 294h21v21h-21zM630 315h42v21h-42zM462 315h63v21h-63z"/>
	<path d="M987 84h21v210h-21V84zM42 0h903v21H63v21H42v42H21v210H0V63h21V21h21V0zm651 315h105v21H693v-21zm-168 0h105v21H525v-21zm-336 0h105v21H189v-21zm693 0h84v21h-84v-21zm-840 0h84v21H42v-21zm525 609h21v63h-21v-63zm-168 0h21v63h-21v-63zm189-63h21v63h-21v-63zm-168 0h21v63h-21v-63zm147-105h21v63h-21v-63zm-168 0h21v63h-21v-63zm189-63h21v63h-21v-63zm-168 0h21v63h-21v-63zm147-105h21v63h-21v-63zm-168 0h21v63h-21v-63zm189-63h21v63h-21v-63zm-168 0h21v63h-21v-63zm147-105h21v63h-21v-63zm-168 0h21v63h-21v-63zm189-63h21v63h-21v-63zm-168 0h21v63h-21v-63zm399-84h42v21h-42v-21zM966 42h21v42h-21V42zm0 252h21v21h-21v-21zm-105 0h21v21h-21v-21zm-63 0h21v21h-21v-21zm-126 0h21v21h-21v-21zm-42 0h21v21h-21v-21zm-126 0h21v21h-21v-21zm-42 0h21v21h-21v-21zm-126 0h21v21h-21v-21zm-42 0h21v21h-21v-21zm-126 0h21v21h-21v-21zm-42 0h21v21h-21v-21zm-105 0h21v21H21v-21zm630-21h21v21h-21v-21zm-168 0h21v21h-21v-21zm-168 0h21v21h-21v-21zm-168 0h21v21h-21v-21zM945 21h21v21h-21V21zM357 315h105v21H357z"/>
</svg>