<svg xmlns="http://www.w3.org/2000/svg" viewBox="0 0 54.5 38.4">
	<path fill="#B22234"
		d="M2.68 0h49.13c1.67 0 3.03 1.36 3.03 3.03v32.33c0 1.67-1.36 3.03-3.03 3.03H2.68a3.02 3.02 0 0 1-3.03-3.02V3.03C-.35 1.36 1.01 0 2.68 0z" />
	<path fill="#fff"
		d="M-.33 2.73h55.17c.01.1.02.2.02.31v2.94H-.35V3.03c0-.1.01-.2.02-.3zm55.18 5.94v3.24H-.35V8.67h55.2zm0 5.94v3.24H-.35v-3.24h55.2zm0 5.94v3.24H-.35v-3.24h55.2zm0 5.94v3.24H-.35v-3.24h55.2zm0 5.94v2.93c0 .1-.01.21-.02.31H-.33c-.01-.09-.02-.2-.02-.3v-2.93h55.2v-.01z" />
	<path fill="#3c3b6e" d="M20.45 0v20.68H-.35V3.03C-.35 1.36 1.01 0 2.68 0h17.77z" />
	<path fill="#fff"
		d="m.88 2.86.69 2.15-1.82-1.33h2.26L.18 5.01l.7-2.15zM.88 7.02l.69 2.15-1.82-1.33h2.26L.18 9.17l.7-2.15zM.88 11.18l.69 2.15L-.25 12h2.26L.18 13.33l.7-2.15zM.88 15.34l.69 2.15-1.82-1.33h2.26L.18 17.49l.7-2.15zM3.32.78l.7 2.15L2.19 1.6h2.27L2.62 2.93l.7-2.15zM3.32 4.94l.7 2.15-1.83-1.33h2.27L2.62 7.09l.7-2.15zM3.32 9.1l.7 2.15-1.83-1.33h2.27l-1.84 1.33.7-2.15zM3.32 13.26l.7 2.15-1.83-1.33h2.27l-1.84 1.33.7-2.15zM3.32 17.42l.7 2.15-1.83-1.33h2.27l-1.84 1.33.7-2.15zM5.77 2.86l.7 2.15-1.83-1.33H6.9L5.07 5.01l.7-2.15zM5.77 7.02l.7 2.15-1.83-1.33H6.9L5.07 9.17l.7-2.15zM5.77 11.18l.7 2.15L4.64 12H6.9l-1.83 1.33.7-2.15zM5.77 15.34l.7 2.15-1.83-1.33H6.9l-1.83 1.33.7-2.15zM8.22.78l.69 2.15L7.09 1.6h2.26L7.52 2.93l.7-2.15zM8.22 4.94l.69 2.15-1.82-1.33h2.26L7.52 7.09l.7-2.15zM8.22 9.1l.69 2.15-1.82-1.33h2.26l-1.83 1.33.7-2.15zM8.22 13.26l.69 2.15-1.82-1.33h2.26l-1.83 1.33.7-2.15zM8.22 17.42l.69 2.15-1.82-1.33h2.26l-1.83 1.33.7-2.15zM10.66 2.86l.7 2.15-1.83-1.33h2.26L9.96 5.01l.7-2.15zM10.66 7.02l.7 2.15-1.83-1.33h2.26L9.96 9.17l.7-2.15zM10.66 11.18l.7 2.15L9.53 12h2.26l-1.83 1.33.7-2.15zM10.66 15.34l.7 2.15-1.83-1.33h2.26l-1.83 1.33.7-2.15zM13.11.78l.7 2.15-1.83-1.33h2.26l-1.83 1.33.7-2.15zM13.11 4.94l.7 2.15-1.83-1.33h2.26l-1.83 1.33.7-2.15zM13.11 9.1l.7 2.15-1.83-1.33h2.26l-1.83 1.33.7-2.15zM13.11 13.26l.7 2.15-1.83-1.33h2.26l-1.83 1.33.7-2.15zM13.11 17.42l.7 2.15-1.83-1.33h2.26l-1.83 1.33.7-2.15zM15.55 2.86l.7 2.15-1.83-1.33h2.26l-1.82 1.33.69-2.15zM15.55 7.02l.7 2.15-1.83-1.33h2.26l-1.82 1.33.69-2.15zM15.55 11.18l.7 2.15L14.42 12h2.26l-1.82 1.33.69-2.15zM15.55 15.34l.7 2.15-1.83-1.33h2.26l-1.82 1.33.69-2.15zM18 .78l.7 2.15-1.83-1.33h2.26L17.3 2.93 18 .78zM18 4.94l.7 2.15-1.83-1.33h2.26L17.3 7.09l.7-2.15zM18 9.1l.7 2.15-1.83-1.33h2.26l-1.83 1.33.7-2.15zM18 13.26l.7 2.15-1.83-1.33h2.26l-1.83 1.33.7-2.15zM18 17.42l.7 2.15-1.83-1.33h2.26l-1.83 1.33.7-2.15z" />
</svg>