<svg xmlns="http://www.w3.org/2000/svg" viewBox="0 0 54.5 38.4">
	<path fill="#B22234"
		d="M2.68 0h49.13c1.67 0 3.03 1.36 3.03 3.03v32.33c0 1.67-1.36 3.03-3.03 3.03H2.68a3.02 3.02 0 0 1-3.03-3.02V3.03C-.35 1.36 1.01 0 2.68 0z">
	</path>
	<path fill="#fff"
		d="M-.33 2.73h55.17c.01.1.02.2.02.31v2.94H-.35V3.03c0-.1.01-.2.02-.3zm55.18 5.94v3.24H-.35V8.67h55.2zm0 5.94v3.24H-.35v-3.24h55.2zm0 5.94v3.24H-.35v-3.24h55.2zm0 5.94v3.24H-.35v-3.24h55.2zm0 5.94v2.93c0 .1-.01.21-.02.31H-.33c-.01-.09-.02-.2-.02-.3v-2.93h55.2v-.01z">
	</path>
	<path fill="#3c3b6e" d="M20.45 0v20.68H-.35V3.03C-.35 1.36 1.01 0 2.68 0h17.77z"></path>
	<path fill="#fff"
		d="m1.38 2.86.69 2.15L.25 3.68h2.26L.68 5.01l.7-2.15zm0 4.16.69 2.15L.25 7.84h2.26L.68 9.17l.7-2.15zm0 4.16.69 2.15L.25 12h2.26L.68 13.33l.7-2.15zm0 4.16.69 2.15-1.82-1.33h2.26L.68 17.49l.7-2.15zM3.82.78l.7 2.15L2.69 1.6h2.27L3.12 2.93l.7-2.15zm0 4.16.7 2.15-1.83-1.33h2.27L3.12 7.09l.7-2.15zm0 4.16.7 2.15-1.83-1.33h2.27l-1.84 1.33.7-2.15zm0 4.16.7 2.15-1.83-1.33h2.27l-1.84 1.33.7-2.15zm0 4.16.7 2.15-1.83-1.33h2.27l-1.84 1.33.7-2.15zM6.27 2.86l.7 2.15-1.83-1.33H7.4L5.57 5.01l.7-2.15zm0 4.16.7 2.15-1.83-1.33H7.4L5.57 9.17l.7-2.15zm0 4.16.7 2.15L5.14 12H7.4l-1.83 1.33.7-2.15zm0 4.16.7 2.15-1.83-1.33H7.4l-1.83 1.33.7-2.15zM8.72.78l.69 2.15L7.59 1.6h2.26L8.02 2.93l.7-2.15zm0 4.16.69 2.15-1.82-1.33h2.26L8.02 7.09l.7-2.15zm0 4.16.69 2.15-1.82-1.33h2.26l-1.83 1.33.7-2.15zm0 4.16.69 2.15-1.82-1.33h2.26l-1.83 1.33.7-2.15zm0 4.16.69 2.15-1.82-1.33h2.26l-1.83 1.33.7-2.15zm2.44-14.56.7 2.15-1.83-1.33h2.26l-1.83 1.33.7-2.15zm0 4.16.7 2.15-1.83-1.33h2.26l-1.83 1.33.7-2.15zm0 4.16.7 2.15L10.03 12h2.26l-1.83 1.33.7-2.15zm0 4.16.7 2.15-1.83-1.33h2.26l-1.83 1.33.7-2.15zM13.61.78l.7 2.15-1.83-1.33h2.26l-1.83 1.33.7-2.15zm0 4.16.7 2.15-1.83-1.33h2.26l-1.83 1.33.7-2.15zm0 4.16.7 2.15-1.83-1.33h2.26l-1.83 1.33.7-2.15zm0 4.16.7 2.15-1.83-1.33h2.26l-1.83 1.33.7-2.15zm0 4.16.7 2.15-1.83-1.33h2.26l-1.83 1.33.7-2.15zm2.44-14.56.7 2.15-1.83-1.33h2.26l-1.82 1.33.69-2.15zm0 4.16.7 2.15-1.83-1.33h2.26l-1.82 1.33.69-2.15zm0 4.16.7 2.15L14.92 12h2.26l-1.82 1.33.69-2.15zm0 4.16.7 2.15-1.83-1.33h2.26l-1.82 1.33.69-2.15zM18.5.78l.7 2.15-1.83-1.33h2.26L17.8 2.93l.7-2.15zm0 4.16.7 2.15-1.83-1.33h2.26L17.8 7.09l.7-2.15zm0 4.16.7 2.15-1.83-1.33h2.26l-1.83 1.33.7-2.15zm0 4.16.7 2.15-1.83-1.33h2.26l-1.83 1.33.7-2.15zm0 4.16.7 2.15-1.83-1.33h2.26l-1.83 1.33.7-2.15z">
	</path>
</svg>