<svg xmlns="http://www.w3.org/2000/svg"
	xmlns:xlink="http://www.w3.org/1999/xlink" version="1.1" x="0px" y="0px" viewBox="0 0 60 75" style="enable-background:new 0 0 60 60;" xml:space="preserve">
	<path d="M34.5493774,39.1904297c-1.4387817-0.3369141-2.9158936-0.529541-4.4025879-0.5905762v-8.1784668h8.175415  c-0.0314331,1.6010742-0.1216431,3.1896973-0.3060303,4.7255859c-0.0640869,0.532959,0.3164063,1.0175781,0.8498535,1.0821533  c0.5258789,0.0598145,1.0170288-0.3172607,1.081665-0.8503418c0.1937866-1.6124268,0.2883911-3.2786865,0.3201904-4.9573975  h10.4294434c-0.0574951,1.2883301-0.2238159,2.5681152-0.506958,3.8154297  c-0.1192627,0.5244141,0.2094727,1.0450439,0.7334595,1.1647949c0.5239258,0.1177979,1.0450439-0.2099609,1.1638184-0.7333984  c0.3866577-1.7026367,0.5823975-3.458252,0.5823975-5.2197266c0-6.6452637-2.7775269-12.6503906-7.2271118-16.9282227  c-0.0133667-0.0159912-0.0178223-0.0361328-0.0323486-0.0513916c-0.0237427-0.0249023-0.0553589-0.03479-0.0809326-0.0566406  c-4.2145386-3.9986572-9.9014282-6.4598389-16.1557617-6.4598389c-6.2542725,0-11.94104,2.4611816-16.1554565,6.4597168  c-0.0256958,0.0219727-0.057373,0.0318604-0.0811768,0.0567627c-0.0147095,0.0155029-0.0192261,0.0357666-0.0327148,0.0518799  c-4.4490967,4.277832-7.2262573,10.2827148-7.2262573,16.9277344s2.7772217,12.6499023,7.2263794,16.9277344  c0.0134888,0.0161133,0.0178833,0.036377,0.0325928,0.0517578c0.0229492,0.0241699,0.0539551,0.0332031,0.0786743,0.0544434  c4.2146606,4,9.9024048,6.4621582,16.157959,6.4621582c1.5966187,0,3.1936646-0.161499,4.746582-0.4797363  c0.5263062-0.1074219,0.8654785-0.6223145,0.7576294-1.1486816c-0.0710449-0.3479004-0.3268433-0.5986328-0.6400757-0.7076416  c0.2307739-0.3704834,0.2069092-0.8555908-0.1104736-1.1829834c-0.3738403-0.3876953-0.9890137-0.3952637-1.3756714-0.0228271  c-0.7831421,0.7589111-1.5889282,1.2381592-2.4050903,1.4554443V40.5455322  c1.3374023,0.0598145,2.6652832,0.2364502,3.9589233,0.5394287c0.5220337,0.1206055,1.0465088-0.201416,1.1690674-0.7249756  S35.0723877,39.3129883,34.5493774,39.1904297z M50.6750488,28.4755859H40.2850342  c-0.0690918-3.7476807-0.5327759-7.2453613-1.3115845-10.3123779c2.0418091-0.9388428,3.9481812-2.1732178,5.6698608-3.68396  C48.1873779,18.140625,50.4309692,23.0488281,50.6750488,28.4755859z M43.2207642,13.140625  c-1.4645996,1.2631836-3.0698853,2.3132324-4.7848511,3.1311035c-1.0297852-3.2635498-2.4404907-5.9215088-4.1067505-7.7242432  C37.6657104,9.3712158,40.6964722,10.9631348,43.2207642,13.140625z M30.1467896,8.0273438  c2.6334839,0.6867676,4.9718628,4.1192627,6.4719849,9.0114746c-2.0598145,0.7580566-4.2366333,1.1943359-6.4719849,1.2941895  V8.0273438z M30.1467896,20.2788086c2.4119873-0.098877,4.7613525-0.5598145,6.9886475-1.3618164  c0.7033691,2.8668213,1.135376,6.121582,1.2042236,9.5585938h-8.1928711V20.2788086z M24.0186768,8.5474854  c-1.6662598,1.8027344-3.0767212,4.4608154-4.1065063,7.7244873c-1.7150269-0.8178711-3.3203125-1.8679199-4.7849121-3.1311035  C17.6514893,10.9633789,20.6821899,9.3712158,24.0186768,8.5474854z M13.7047729,14.4794922  c1.7216187,1.5108643,3.6279907,2.7451172,5.6698608,3.684082c-0.7787476,3.0668945-1.2423706,6.5644531-1.3114014,10.3120117  H7.6732788C7.9173584,23.0489502,10.1608887,18.1408691,13.7047729,14.4794922z M7.6732788,30.4213867h10.3899536  c0.0690308,3.7475586,0.5325928,7.2451172,1.3113403,10.3120117c-2.0418701,0.9389648-3.9481812,2.1732178-5.6697998,3.684082  C10.1608887,40.7561035,7.9173584,35.8479004,7.6732788,30.4213867z M15.1272583,45.7561035  c1.4645996-1.2631836,3.0698853-2.3132324,4.7849121-3.1312256c1.0297241,3.2637939,2.4402466,5.921875,4.1065063,7.7246094  C20.6821899,49.5256348,17.6514893,47.9335938,15.1272583,45.7561035z M28.2010498,50.8696289  c-2.6334839-0.6867676-4.9717407-4.1193848-6.4717407-9.0117188c2.0596313-0.7579346,4.2363892-1.1942139,6.4717407-1.2940674  V50.8696289z M28.2010498,38.6181641c-2.4120483,0.0987549-4.7614136,0.5595703-6.9884644,1.3613281  c-0.703186-2.8666992-1.1351318-6.1213379-1.2039795-9.5581055h8.1924438V38.6181641z M28.2010498,28.4755859H20.008606  c0.0688477-3.4368896,0.5007935-6.6916504,1.2040405-9.5582275c2.2270508,0.8018799,4.576355,1.2625732,6.9884033,1.3614502  V28.4755859z M28.2010498,18.3330078c-2.2353516-0.0998535-4.4121094-0.5361328-6.4717407-1.2939453  c1.5-4.892334,3.8382568-8.3249512,6.4717407-9.0117188V18.3330078z" fill="#ffffff"/>
	<path d="M53.3488159,42.4434814h-3.2900391v-2.6202393c0-0.5378418-0.4356079-0.9729004-0.9729004-0.9729004h-6.5136108  c-0.5372925,0-0.9729004,0.4350586-0.9729004,0.9729004v2.6202393h-3.2901001c-0.5372314,0-0.9728394,0.4351807-0.9728394,0.9729004  v9.6583252c0,0.5378418,0.4356079,0.9729004,0.9728394,0.9729004h15.0395508c0.5372925,0,0.9729004-0.4350586,0.9729004-0.9729004  v-9.6583252C54.3217163,42.8786621,53.8861084,42.4434814,53.3488159,42.4434814z M43.545105,40.7961426h4.5679321v1.6473389  H43.545105V40.7961426z M52.3759766,52.1018066h-13.093811v-7.7126465h3.2901001h6.5136108h3.2901001V52.1018066z" fill="#ffffff"/>
</svg>