<svg version="1.1" xmlns="http://www.w3.org/2000/svg" viewBox="0 0 512 512">
	<g fill="currentColor">
		<path
			d="M1.914 293.73v-.016l-.017-.057zM10.027 313.061l-.12-.145-.008-.008.128.153zM10.027 223.738l-.12-.145h-.008l.128.145zM1.914 204.423s0-.024-.008-.04l-.008-.024.016.064z" />
		<path
			d="M512 204.688c.008-2.275-.435-4.479-1.15-6.569.7-1.93 1.07-3.876 1.078-5.758.016-2.96-.805-5.822-2.05-8.122l-.04-.072c-.378-.691-.893-1.423-1.464-2.155v-55.268c2.268-3.257 3.619-7.173 3.627-11.378a20.012 20.012 0 0 0-12.408-18.527l-185.36-77.446h-.539c-3.892-1.367-7.928-2.187-12.022-2.187-3.996 0-8.001.78-11.852 2.106h-.482L17.667 128.786l-.676.378.016.024c-3.466 1.825-6.031 4.358-7.8 6.81-3.095 4.302-4.679 8.838-5.83 12.955l-.008.056C1.641 155.402.917 161.891.475 167.384l-.008.048c-.41 5.516-.434 10.18-.466 12.095v1.07c.008 6.698.378 15.406 1.906 23.786l.024.089c.805 4.213 1.938 8.491 3.869 12.657l.032.064.007.016c.982 2.051 2.26 4.246 4.029 6.337l.04.048c.128.153.314.29.459.435-.37.434-.853.852-1.159 1.294-3.104 4.294-4.679 8.83-5.83 12.938l-.008.04v.016C1.642 244.71.918 251.207.476 256.699l-.008.04C.056 262.264.032 266.92 0 268.842v1.069c.008 6.707.378 15.416 1.914 23.803l.016.064c.805 4.222 1.938 8.508 3.869 12.673l.039.072c.974 2.035 2.252 4.23 4.029 6.344l.04.049c.322.386.796.732 1.174 1.117-.636.7-1.367 1.392-1.874 2.091-3.104 4.302-4.679 8.838-5.83 12.938l-.024.113.016-.049C1.641 335.519.917 342.017.475 347.509l-.008.048c-.41 5.516-.434 10.18-.466 12.11v1.045c.008 6.714.378 15.431 1.914 23.819l.016.064c.805 4.214 1.938 8.5 3.869 12.657l.039.08c.974 2.043 2.252 4.23 4.029 6.345l-.128-.145.169.201c1.696 1.97 4.028 3.876 6.94 5.299l-.032.048.056.032.41.233 199.948 82.52.458.193a36.696 36.696 0 0 0 13.879 2.734 36.2 36.2 0 0 0 13.694-2.686l255.907-103.99v-.008c2.951-1.19 5.734-3.128 7.865-6.24l.008.008s.008-.024.016-.04c.008-.008.016-.008.024-.024h-.008c2.018-3.056 2.838-6.272 2.855-9.328.016-2.96-.805-5.822-2.05-8.122l-.04-.072v.008c-.378-.692-.893-1.431-1.464-2.163v-55.26c2.268-3.257 3.619-7.189 3.627-11.386.008-2.541-.531-5.01-1.44-7.318.917-2.171 1.359-4.382 1.367-6.498.016-2.967-.805-5.813-2.05-8.13l-.04-.072c-.378-.684-.893-1.424-1.464-2.156v-55.252c2.265-3.261 3.617-7.186 3.625-11.375zM216.272 469.136l-190.42-78.597-.716-.836c-.595-.925-1.358-2.686-1.97-4.873-.948-3.273-1.6-7.535-1.994-11.845-.394-4.302-.531-8.636-.531-12.271v-.86c.032-2.806.136-10.928 1.294-18.568.547-3.812 1.392-7.487 2.436-10.092l.218-.474 191.681 77.76v60.656zm0-90.812L43.005 306.789l-17.152-7.06-.716-.836c-.595-.933-1.358-2.686-1.97-4.866-.948-3.289-1.6-7.543-1.994-11.852-.394-4.302-.531-8.636-.531-12.264v-.868c.032-2.814.136-10.928 1.294-18.576.547-3.804 1.392-7.487 2.436-10.084l.218-.474 191.681 77.759v60.656zm0-145.033v55.718l-175.108-72.3-15.311-6.297-.716-.844c-.595-.925-1.358-2.686-1.97-4.856-.948-3.282-1.6-7.535-1.994-11.854-.394-4.31-.531-8.636-.531-12.262v-.869c.032-2.806.136-10.928 1.294-18.568.547-3.812 1.392-7.486 2.436-10.092l.218-.466 191.681 77.752v4.938zm271.459 138.022L238.16 472.706l-.66.297a16.188 16.188 0 0 1-5.934 1.15c-.716 0-1.447-.105-2.155-.217v-61.412a26.02 26.02 0 0 0 2.855.161c3.756 0 7.519-.74 11.033-2.187l.241-.104 244.192-99.664v60.583zm0-91.157v.338L238.16 381.895l-.66.29a16.025 16.025 0 0 1-5.934 1.15c-.716 0-1.447-.104-2.155-.201v-61.42a26.27 26.27 0 0 0 2.855.161c3.756 0 7.519-.74 11.033-2.18l.241-.112 171.272-69.896 72.919-29.77v60.239zm0-90.811v1.841L238.16 292.58l-.66.289a16.035 16.035 0 0 1-5.934 1.158c-.716 0-1.447-.105-2.155-.208V232.391c.941.113 1.914.16 2.855.16 3.756 0 7.519-.731 11.033-2.17l.241-.105 244.192-99.672v58.741zM1.914 384.549v-.016l-.017-.049z" />
	</g>
</svg>