<svg xmlns="http://www.w3.org/2000/svg" viewBox="0 0 205.482 205.482">
	<path fill="currentColor"
		d="M188.03 113.487c-21.775 11.727-23.851-9.635-23.851-9.635-18.021-2.093-31.403-22.201-31.403-22.201-24.312 12.558-10.752 47.996-.284 61.603 1.396 1.809 2.494 3.747 3.417 5.745h17.354v25.215h24.045v31.269H11.865v-31.269h24.048v-25.215H52.98c-20.803-26.351-15.392-51.211-9.422-67.664 7.209-19.815 16.953-30.691 31.16-42.265 21.122-17.221 60.145-19.375 60.145-19.375.255-1.463 1.448-3.177 2.974-4.926-4.688.127-10.427.52-16.964 1.362-4.469.872-9.387 1.356-14.378 2.816-5.104 1.105-10.285 2.878-15.581 4.912-5.29 1.974-10.489 4.775-15.628 7.692-4.876 3.402-10.06 6.537-14.156 11.018-4.702 3.83-8.127 8.819-11.645 13.586-3.673 4.682-5.479 10.4-8.228 15.321-2.039 5.249-3.177 10.666-4.714 15.617-1.392 4.994-1.368 9.992-2.069 14.49-.594 4.492-1.049 8.629-.704 12.317.116 3.688.195 6.928.278 9.563.156 5.297.254 8.335.254 8.335l-.733.07s-.629-2.967-1.457-8.311c-.393-2.671-.877-5.923-1.41-9.682-.807-3.735-.831-8.015-.479-12.726.266-3.369.313-7.037.629-10.796l-8.801-.189 9.014-11.032-9.46-1.369L35.122 67.41l-9.916-3.154 13.976-7.669-10.592-3.153 18.256-5.872-12.62-3.606L54.73 38.32l-11.275-5.181 20.729-2.707-10.136-5.852 25.307-2.651c.112-.059.239-.127.354-.163L68.018 16.47l26.596-2.258L82.44 7.9l50.312 4.007c2.72.106 5.096.319 7.259.556C146.478 6.271 156.632 0 156.632 0c-2.08 2.084-2.932 13.409-2.932 13.409 2.099-3.771 8.795-7.542 8.795-7.542-3.759 8.781 0 27.624 0 27.624 10.899 10.899 23.046 48.578 23.046 48.578l4.623 6.694c5.846 8.41 3.688 21.591-2.134 24.724z" />
</svg>