<svg xmlns="http://www.w3.org/2000/svg" viewBox="0 0 59 59">
	<g fill="currentColor">
		<path d="M42.5 47h2v2h-2zM13.5 39h-3v3h-3v3h3v3h3v-3h3v-3h-3zM23.5 46h12v3h-12z" />
		<path
			d="M54.516 28H20.5V13.5c0-1.93 1.57-3.5 3.5-3.5s3.5 1.57 3.5 3.5V20c0 2.757 2.243 5 5 5s5-2.243 5-5V1a1 1 0 1 0-2 0v19c0 1.654-1.346 3-3 3s-3-1.346-3-3v-6.5c0-3.032-2.467-5.5-5.5-5.5s-5.5 2.468-5.5 5.5V28H4.484A3.989 3.989 0 0 0 .5 31.984v23.031A3.99 3.99 0 0 0 4.484 59h50.031a3.988 3.988 0 0 0 3.984-3.984V31.984A3.987 3.987 0 0 0 54.516 28zM18.5 47h-3v3h-7v-3h-3v-7h3v-3h7v3h3v7zm19 8h-16v-2h16v2zm0-4h-16v-7h16v7zm0-9h-16v-2h16v2zm0-4h-16v-2h16v2zm0-4h-16v-2h16v2zm9 17h-6v-6h6v6zm8 0h-6v-6h6v6z" />
		<path d="M50.5 47h2v2h-2z" />
	</g>
</svg>