<?xml version="1.0" encoding="UTF-8"?>
<svg version="1.1"
	xmlns="http://www.w3.org/2000/svg" width="1600" height="1600">
	<path fill="#FF3118" transform="translate(1300,0)" d="M0 0 C99 0 198 0 300 0 C300 198 300 396 300 600 C267 600 234 600 200 600 C200 633 200 666 200 700 C167 700 134 700 100 700 C100 733 100 766 100 800 C67 800 34 800 0 800 C0 899 0 998 0 1100 C66 1100 132 1100 200 1100 C200 1034 200 968 200 900 C233 900 266 900 300 900 C300 1065 300 1230 300 1400 C135 1400 -30 1400 -200 1400 C-200 1433 -200 1466 -200 1500 C-299 1500 -398 1500 -500 1500 C-500 1533 -500 1566 -500 1600 C-632 1600 -764 1600 -900 1600 C-900 1567 -900 1534 -900 1500 C-966 1500 -1032 1500 -1100 1500 C-1100 1533 -1100 1566 -1100 1600 C-1133 1600 -1166 1600 -1200 1600 C-1200 1534 -1200 1468 -1200 1400 C-1167 1400 -1134 1400 -1100 1400 C-1100 1367 -1100 1334 -1100 1300 C-1133 1300 -1166 1300 -1200 1300 C-1200 1267 -1200 1234 -1200 1200 C-1233 1200 -1266 1200 -1300 1200 C-1300 1134 -1300 1068 -1300 1000 C-1267 1000 -1234 1000 -1200 1000 C-1200 967 -1200 934 -1200 900 C-1167 900 -1134 900 -1100 900 C-1100 867 -1100 834 -1100 800 C-968 800 -836 800 -700 800 C-700 767 -700 734 -700 700 C-766 700 -832 700 -900 700 C-900 601 -900 502 -900 400 C-867 400 -834 400 -800 400 C-800 334 -800 268 -800 200 C-767 200 -734 200 -700 200 C-700 167 -700 134 -700 100 C-535 100 -370 100 -200 100 C-200 133 -200 166 -200 200 C-134 200 -68 200 0 200 C0 134 0 68 0 0 Z M-100 300 C-100 333 -100 366 -100 400 C-67 400 -34 400 0 400 C0 367 0 334 0 300 C-33 300 -66 300 -100 300 Z M-1000 1100 C-1000 1133 -1000 1166 -1000 1200 C-967 1200 -934 1200 -900 1200 C-900 1167 -900 1134 -900 1100 C-933 1100 -966 1100 -1000 1100 Z M-1100 1200 C-1100 1233 -1100 1266 -1100 1300 C-1067 1300 -1034 1300 -1000 1300 C-1000 1267 -1000 1234 -1000 1200 C-1033 1200 -1066 1200 -1100 1200 Z "/>
	<path fill="#FF3118" transform="translate(800,900)" d="M0 0 C33 0 66 0 100 0 C100 33 100 66 100 100 C199 100 298 100 400 100 C400 67 400 34 400 0 C433 0 466 0 500 0 C500 66 500 132 500 200 C566 200 632 200 700 200 C700 134 700 68 700 0 C733 0 766 0 800 0 C800 165 800 330 800 500 C635 500 470 500 300 500 C300 533 300 566 300 600 C201 600 102 600 0 600 C0 633 0 666 0 700 C-132 700 -264 700 -400 700 C-400 667 -400 634 -400 600 C-466 600 -532 600 -600 600 C-600 633 -600 666 -600 700 C-633 700 -666 700 -700 700 C-700 634 -700 568 -700 500 C-667 500 -634 500 -600 500 C-600 467 -600 434 -600 400 C-567 400 -534 400 -500 400 C-500 367 -500 334 -500 300 C-467 300 -434 300 -400 300 C-400 267 -400 234 -400 200 C-334 200 -268 200 -200 200 C-200 233 -200 266 -200 300 C-167 300 -134 300 -100 300 C-100 267 -100 234 -100 200 C-67 200 -34 200 0 200 C0 134 0 68 0 0 Z "/>
	<path fill="#C66300" transform="translate(200,800)" d="M0 0 C363 0 726 0 1100 0 C1100 33 1100 66 1100 100 C1067 100 1034 100 1000 100 C1000 133 1000 166 1000 200 C901 200 802 200 700 200 C700 167 700 134 700 100 C667 100 634 100 600 100 C600 166 600 232 600 300 C567 300 534 300 500 300 C500 333 500 366 500 400 C467 400 434 400 400 400 C400 367 400 334 400 300 C301 300 202 300 100 300 C100 333 100 366 100 400 C67 400 34 400 0 400 C0 433 0 466 0 500 C-33 500 -66 500 -100 500 C-100 467 -100 434 -100 400 C-133 400 -166 400 -200 400 C-200 334 -200 268 -200 200 C-167 200 -134 200 -100 200 C-100 167 -100 134 -100 100 C-67 100 -34 100 0 100 C0 67 0 34 0 0 Z "/>
	<path fill="#FF945A" transform="translate(800,300)" d="M0 0 C66 0 132 0 200 0 C200 66 200 132 200 200 C233 200 266 200 300 200 C300 233 300 266 300 300 C267 300 234 300 200 300 C200 333 200 366 200 400 C299 400 398 400 500 400 C500 433 500 466 500 500 C269 500 38 500 -200 500 C-200 434 -200 368 -200 300 C-134 300 -68 300 0 300 C0 267 0 234 0 200 C-33 200 -66 200 -100 200 C-100 167 -100 134 -100 100 C-67 100 -34 100 0 100 C0 67 0 34 0 0 Z "/>
	<path fill="#C66300" transform="translate(500,300)" d="M0 0 C99 0 198 0 300 0 C300 33 300 66 300 100 C267 100 234 100 200 100 C200 133 200 166 200 200 C233 200 266 200 300 200 C300 233 300 266 300 300 C234 300 168 300 100 300 C100 333 100 366 100 400 C34 400 -32 400 -100 400 C-100 301 -100 202 -100 100 C-67 100 -34 100 0 100 C0 67 0 34 0 0 Z "/>
	<path fill="#C66300" transform="translate(300,1200)" d="M0 0 C33 0 66 0 100 0 C100 33 100 66 100 100 C133 100 166 100 200 100 C200 133 200 166 200 200 C167 200 134 200 100 200 C100 233 100 266 100 300 C34 300 -32 300 -100 300 C-100 333 -100 366 -100 400 C-133 400 -166 400 -200 400 C-200 334 -200 268 -200 200 C-167 200 -134 200 -100 200 C-100 167 -100 134 -100 100 C-67 100 -34 100 0 100 C0 67 0 34 0 0 Z "/>
	<path fill="#C66300" transform="translate(1500,900)" d="M0 0 C33 0 66 0 100 0 C100 165 100 330 100 500 C34 500 -32 500 -100 500 C-100 401 -100 302 -100 200 C-67 200 -34 200 0 200 C0 134 0 68 0 0 Z "/>
	<path fill="#C66300" transform="translate(800,800)" d="M0 0 C165 0 330 0 500 0 C500 33 500 66 500 100 C467 100 434 100 400 100 C400 133 400 166 400 200 C301 200 202 200 100 200 C100 167 100 134 100 100 C67 100 34 100 0 100 C0 67 0 34 0 0 Z "/>
	<path fill="#FF945A" transform="translate(1300,0)" d="M0 0 C99 0 198 0 300 0 C300 99 300 198 300 300 C234 300 168 300 100 300 C100 267 100 234 100 200 C67 200 34 200 0 200 C0 134 0 68 0 0 Z "/>
	<path fill="#C66300" transform="translate(1100,500)" d="M0 0 C33 0 66 0 100 0 C100 33 100 66 100 100 C199 100 298 100 400 100 C400 133 400 166 400 200 C367 200 334 200 300 200 C300 233 300 266 300 300 C267 300 234 300 200 300 C200 267 200 234 200 200 C101 200 2 200 -100 200 C-100 167 -100 134 -100 100 C-67 100 -34 100 0 100 C0 67 0 34 0 0 Z "/>
	<path fill="#C66300" transform="translate(1300,300)" d="M0 0 C99 0 198 0 300 0 C300 99 300 198 300 300 C267 300 234 300 200 300 C200 267 200 234 200 200 C134 200 68 200 0 200 C0 134 0 68 0 0 Z "/>
	<path fill="#FF945A" transform="translate(0,1000)" d="M0 0 C66 0 132 0 200 0 C200 33 200 66 200 100 C233 100 266 100 300 100 C300 133 300 166 300 200 C267 200 234 200 200 200 C200 233 200 266 200 300 C167 300 134 300 100 300 C100 267 100 234 100 200 C67 200 34 200 0 200 C0 134 0 68 0 0 Z "/>
	<path fill="#FF945A" transform="translate(1100,300)" d="M0 0 C33 0 66 0 100 0 C100 33 100 66 100 100 C133 100 166 100 200 100 C200 133 200 166 200 200 C266 200 332 200 400 200 C400 233 400 266 400 300 C301 300 202 300 100 300 C100 267 100 234 100 200 C67 200 34 200 0 200 C0 134 0 68 0 0 Z "/>
	<path fill="#C66300" transform="translate(400,400)" d="M0 0 C33 0 66 0 100 0 C100 66 100 132 100 200 C133 200 166 200 200 200 C200 233 200 266 200 300 C134 300 68 300 0 300 C0 201 0 102 0 0 Z "/>
	<path fill="#FF945A" transform="translate(500,400)" d="M0 0 C33 0 66 0 100 0 C100 66 100 132 100 200 C67 200 34 200 0 200 C0 134 0 68 0 0 Z "/>
	<path fill="#C66300" transform="translate(1000,300)" d="M0 0 C33 0 66 0 100 0 C100 66 100 132 100 200 C67 200 34 200 0 200 C0 134 0 68 0 0 Z "/>
	<path fill="#FF945A" transform="translate(1200,1100)" d="M0 0 C33 0 66 0 100 0 C100 33 100 66 100 100 C67 100 34 100 0 100 C0 67 0 34 0 0 Z "/>
	<path fill="#FF945A" transform="translate(900,1100)" d="M0 0 C33 0 66 0 100 0 C100 33 100 66 100 100 C67 100 34 100 0 100 C0 67 0 34 0 0 Z "/>
	<path fill="#C66300" transform="translate(1200,800)" d="M0 0 C33 0 66 0 100 0 C100 33 100 66 100 100 C67 100 34 100 0 100 C0 67 0 34 0 0 Z "/>
	<path fill="#FF3118" transform="translate(1100,800)" d="M0 0 C33 0 66 0 100 0 C100 33 100 66 100 100 C67 100 34 100 0 100 C0 67 0 34 0 0 Z "/>
	<path fill="#FF3118" transform="translate(700,800)" d="M0 0 C33 0 66 0 100 0 C100 33 100 66 100 100 C67 100 34 100 0 100 C0 67 0 34 0 0 Z "/>
</svg>
