<svg xmlns="http://www.w3.org/2000/svg" viewBox="0 0 48 48">
	<path stroke="#000000" d="M3 .5h8m1 0h17m1 0h10m1 0h4m-43 1h1m42 0h1m-45 1h1m44 0h1m-46 1h1m44 0h1m-47 1h1m46 0h1m-48 1h1m46 0h1m-1 1h1m-48 1h1m46 0h1m-48 1h1m46 0h1m-48 1h1m-1 1h1m46 0h1m-48 1h1m46 0h1m-48 2h1m46 0h1m-47 1h2m43 0h2m-44 1h1m2 0h4m1 0h4m1 0h5m1 0h23m-15 1h1m-16 1h1m14 0h1m-16 1h1m14 0h1m-16 1h1m14 0h1m-16 1h1m14 0h1m-16 1h1m14 0h1m-16 1h1m-1 1h1m14 0h1m-16 1h1m-1 1h1m14 0h1m-16 1h1m14 0h1m-16 1h1m14 0h1m-16 1h1m14 0h1m-16 1h1m-1 1h1m14 0h1m-16 1h1m14 0h1m-16 1h1m14 0h1m-16 1h1m14 0h1m-16 1h1m-1 1h1m14 0h1m-16 1h1m14 0h1m-16 1h1m14 0h1m-16 1h1m14 0h1m-16 1h1m14 0h1m-16 1h1m14 0h1m-16 1h1m14 0h1m-16 1h1m14 0h1m-16 1h1m14 0h1m-16 1h1m14 0h1m-1 1h1m-16 1h1m14 0h1m-16 1h1m14 0h1M11 .5h1m17 0h1m17 9h1m-1 3h1m-43 3h1m5 0h1M40 .5h1m-25 15h1m5 0h1m23 0h1m-31 1h1m14 6h1m-1 2h1m-1 5h1m-1 5h1m-16 11h1M0 6.5h1m-1 6h1m2 3h1m2 0h1"/>
	<path stroke="#b53121" d="M3 1.5h6m8 0h4m1 0h3m7 0h8m-38 1h1m1 0h5m8 0h5m1 0h2m7 0h6m1 0h1m-38 1h7m9 0h2m1 0h3m8 0h8m-39 1h8m23 0h8m3 0h3m-45 1h7m16 0h1m1 0h3m4 0h6m4 0h4m-46 1h7m3 0h3m9 0h7m4 0h4m4 0h4m-45 1h3m1 0h2m3 0h5m8 0h7m11 0h6m-46 1h5m3 0h5m1 0h1m6 0h5m2 0h2m10 0h6m-38 1h7m6 0h6m1 0h2m11 0h1m1 0h3m-38 1h7m6 0h2m1 0h3m2 0h1m12 0h2m-35 1h2m1 0h2m7 0h9m-20 1h3m9 0h7m-7 1h7m-6 1h1m1 0h3M21 1.5h1m-19 1h1m38 3h1m-16 3h1m-4 2h1m20 0h1m-34 1h1M22 2.5h1m2 3h1m20 1h1m-43 1h1m23 1h1m-1 1h1m14 0h1m-16 1h1m-4 4h1M38 2.5h1m-19 1h1m20 3h1m-28 2h1m14 2h1"/>
	<path stroke="#e69c21" d="M9 1.5h2m1 0h2m1 0h2m8 0h7m8 0h5m-36 1h8m8 0h1m1 0h5m8 0h6m-36 1h6m1 0h1m6 0h5m1 0h2m8 0h5m-36 1h16m1 0h6m8 0h3m3 0h1m-39 1h3m1 0h9m1 0h2m5 0h4m6 0h3m-34 1h3m3 0h9m7 0h4m4 0h3m-34 1h3m5 0h8m7 0h5m1 0h5m-35 1h2m8 0h4m1 0h1m9 0h2m1 0h2m1 0h1m1 0h2m-40 1h8m8 0h4m10 0h11m-41 1h1m1 0h6m7 0h6m9 0h8m1 0h3m3 0h1m-46 1h9m5 0h3m1 0h1m1 0h1m9 0h13m2 0h1m-46 1h8m1 0h1m3 0h9m9 0h6m1 0h5m1 0h2m-46 1h8m1 0h13m7 0h4m1 0h11m-43 1h6m1 0h11m1 0h2m5 0h17M11 1.5h1m2 0h1m11 1h1m2 1h1m-19 2h1m23 2h1m-28 1h1m11 0h1m17 0h1m-37 2h1m17 1h1m23 0h1m-7 1h1m5 0h1M9 3.5h1m35 0h1m-25 2h1m11 3h1m2 0h1m-16 1h1m17 1h1m-22 1h1m26 0h1m-37 1h1m20 0h1m-22 1h1m-1 1h1m11 0h1M16 3.5h1m8 1h1m-10 5h1m14 3h1m2 1h1m11 0h1"/>
	<path stroke="#ffcec5" d="M17 16.5h1m-1 1h1m2 2h1m2 3h1m2 0h1m-1 5h1m2 1h1m-4 3h1m-7 11h1m2 1h1m2 4h1M18 16.5h6m1 0h6m-13 1h3m1 0h3m1 0h5m-14 1h14m-14 1h2m2 0h6m1 0h3m-14 1h14m-14 1h4m1 0h4m1 0h3m-12 1h2m1 0h1m2 0h1m3 0h2m-13 1h1m2 0h3m2 0h3m2 0h1m-14 1h4m1 0h9m-14 1h11m1 0h2m-14 1h4m2 0h8m-14 1h9m1 0h1m1 0h2m-14 1h12m1 0h1m-14 1h8m1 0h5m-14 1h5m1 0h8m-14 1h9m1 0h4m-14 1h14m-14 1h14m-14 1h4m1 0h9m-14 1h14m-14 1h14m-14 1h14m-14 1h4m1 0h3m1 0h5m-14 1h13m-13 1h13m-13 1h2m1 0h11m-14 1h3m1 0h10m-14 1h1m1 0h4m1 0h7m-14 1h4m1 0h9m-14 1h14m-14 1h14m-14 1h9m2 0h3M24 16.5h1m-4 1h1m5 2h1m2 2h1m-10 3h1m-1 2h1m-1 8h1m-1 4h1m8 1h1m-1 1h1m-13 3h1m2 1h1m5 3h1M25 17.5h1m-7 2h1m8 6h1m-7 1h1m5 1h1m-4 2h1m-4 1h1m2 8h1m-7 3h1"/>
	<path stroke="#9c4a00" d="M21 21.5h1m4 0h1m-10 1h1m2 0h1m1 0h1m4 0h1m2 0h1m-13 1h2m3 0h2m3 0h2M25 22.5h1"/>
</svg>