<svg xmlns="http://www.w3.org/2000/svg" viewBox="0 0 1008 1008">
	<path fill="#008088" d="M0 0h1008v1008H0V0z"/>
	<path d="M567 0h441v1008H567v-63h315v-63h63V378H630v252h-63V0z"/>
	<g fill="#008088">
		<path d="M630 378h315v504h-63v63H567v63h-63V756h63V630h63V378zM693 0h252v315H756v-63h-63v63h-63V63h63V0zM0 693h126v63h126v63h189v126H0V693z"/>
	</g>
	<path d="M945 378h63v630H567v-63h315v-63h63V378zM252 756h252v252H0v-63h441V819H252v-63z"/>
	<path d="M252 756h252v189h-63V819H252v-63zM945 0h63v378h-63V0zM693 252h63v63h189v63H693V252zM126 693h126v63H126v-63zM504 630h63v126h-63V630zM0 630h126v63H0v-63z"/>
	<g fill="#9CFCF0">
		<path d="M0 0h567v63H63v567H0V0z"/>
		<path d="M0 0h567v63H0V0zM630 378h315v63H693v189h-63V378zM0 693h126v63H63v189H0V693zM504 756h63v252h-63V756zM630 63h63v252h-63V63zM693 0h252v63H693V0zM252 819h189v63H252v-63zM126 756h126v63H126v-63zM567 630h63v126h-63V630z"/>
	</g>
	<g fill="#008088">
		<path d="M945 945h63v63h-63v-63zM441 945h63v63h-63v-63zM0 945h63v63H0v-63zM945 315h63v63h-63v-63zM630 315h63v63h-63v-63zM945 0h63v63h-63V0zM630 0h63v63h-63V0zM0 0h63v63H0V0z"/>
	</g>
</svg>