<?xml version="1.0" standalone="yes"?>
<svg xmlns="http://www.w3.org/2000/svg" width="256" height="256">
	<path style="fill:#ff5501; stroke:none;" d="M17 0L17 17L0 17L0 241L17 241L17 17L241 17L241 0L17 0z"/>
	<path style="fill:#555555; stroke:none;" d="M241 0L241 17L256 17L256 0L241 0z"/>
	<path style="fill:#ffab55; stroke:none;" d="M17 17L17 241L241 241L241 17L17 17z"/>
	<path style="fill:#010101; stroke:none;" d="M241 17L241 241L0 241L0 256L256 256L256 17L241 17M32 32L32 49L49 49L49 32L32 32M208 32L208 49L225 49L225 32L208 32z"/>
	<path style="fill:#ff5501; stroke:none;" d="M80 49L80 65L65 65L65 113L97 113L97 65L145 65L145 113L128 113L128 128L113 128L113 160L145 160L145 128L177 128L177 65L160 65L160 49L80 49z"/>
	<path style="fill:#010101; stroke:none;" d="M97 65L97 113L80 113L80 128L113 128L113 80L145 80L145 65L97 65z"/>
	<path style="fill:#ffab55; stroke:none;" d="M113 80L113 128L128 128L128 113L145 113L145 80L113 80z"/>
	<path style="fill:#010101; stroke:none;" d="M177 80L177 128L145 128L145 160L128 160L128 177L160 177L160 145L193 145L193 80L177 80z"/>
	<path style="fill:#ff5501; stroke:none;" d="M113 177L113 208L145 208L145 177L113 177z"/>
	<path style="fill:#010101; stroke:none;" d="M145 193L145 208L128 208L128 225L160 225L160 193L145 193M32 208L32 225L49 225L49 208L32 208M208 208L208 225L225 225L225 208L208 208z"/>
</svg>
